<svg width="1920" height="1080" xmlns="http://www.w3.org/2000/svg">
  <!-- Fondo base oscuro -->
  <defs>
    <linearGradient id="bgGradient" x1="0%" y1="0%" x2="100%" y2="100%">
      <stop offset="0%" style="stop-color:#1a0b2e;stop-opacity:1" />
      <stop offset="50%" style="stop-color:#0a0e27;stop-opacity:1" />
      <stop offset="100%" style="stop-color:#000000;stop-opacity:1" />
    </linearGradient>
    
    <!-- Gradiente neón verde -->
    <radialGradient id="neonGreen" cx="30%" cy="30%">
      <stop offset="0%" style="stop-color:#39ff14;stop-opacity:0.4" />
      <stop offset="100%" style="stop-color:#39ff14;stop-opacity:0" />
    </radialGradient>
    
    <!-- Gradiente neón azul -->
    <radialGradient id="neonBlue" cx="70%" cy="70%">
      <stop offset="0%" style="stop-color:#1e90ff;stop-opacity:0.3" />
      <stop offset="100%" style="stop-color:#1e90ff;stop-opacity:0" />
    </radialGradient>
    
    <!-- Gradiente rosa -->
    <radialGradient id="neonPink" cx="50%" cy="80%">
      <stop offset="0%" style="stop-color:#ff00a8;stop-opacity:0.3" />
      <stop offset="100%" style="stop-color:#ff00a8;stop-opacity:0" />
    </radialGradient>
    
    <!-- Filtro de brillo -->
    <filter id="glow">
      <feGaussianBlur stdDeviation="4" result="coloredBlur"/>
      <feMerge>
        <feMergeNode in="coloredBlur"/>
        <feMergeNode in="SourceGraphic"/>
      </feMerge>
    </filter>
  </defs>
  
  <!-- Fondo degradado -->
  <rect width="1920" height="1080" fill="url(#bgGradient)"/>
  
  <!-- Círculos de luz neón -->
  <circle cx="576" cy="324" r="400" fill="url(#neonGreen)" opacity="0.6"/>
  <circle cx="1344" cy="756" r="400" fill="url(#neonBlue)" opacity="0.5"/>
  <circle cx="960" cy="864" r="300" fill="url(#neonPink)" opacity="0.4"/>
  
  <!-- Grid pattern cyber -->
  <g opacity="0.1" stroke="#39ff14" stroke-width="1" fill="none">
    <line x1="0" y1="270" x2="1920" y2="270"/>
    <line x1="0" y1="540" x2="1920" y2="540"/>
    <line x1="0" y1="810" x2="1920" y2="810"/>
    <line x1="480" y1="0" x2="480" y2="1080"/>
    <line x1="960" y1="0" x2="960" y2="1080"/>
    <line x1="1440" y1="0" x2="1440" y2="1080"/>
  </g>
  
  <!-- Formas geométricas gaming -->
  <g opacity="0.15" fill="none" stroke="#1e90ff" stroke-width="2" filter="url(#glow)">
    <!-- Controlador abstracto -->
    <rect x="200" y="150" width="300" height="180" rx="90" stroke="#39ff14"/>
    <circle cx="280" cy="240" r="30" stroke="#39ff14"/>
    <circle cx="420" cy="240" r="30" stroke="#39ff14"/>
    
    <!-- Teclado abstracto -->
    <rect x="1400" y="700" width="400" height="250" rx="10" stroke="#ff00a8"/>
    <rect x="1420" y="720" width="60" height="60" rx="5" stroke="#ff00a8"/>
    <rect x="1500" y="720" width="60" height="60" rx="5" stroke="#ff00a8"/>
    <rect x="1580" y="720" width="60" height="60" rx="5" stroke="#ff00a8"/>
    
    <!-- Hexágonos -->
    <polygon points="1600,200 1650,230 1650,290 1600,320 1550,290 1550,230" stroke="#1e90ff"/>
    <polygon points="300,800 350,830 350,890 300,920 250,890 250,830" stroke="#39ff14"/>
  </g>
  
  <!-- Partículas flotantes -->
  <g opacity="0.6">
    <circle cx="150" cy="400" r="3" fill="#39ff14"/>
    <circle cx="400" cy="600" r="2" fill="#1e90ff"/>
    <circle cx="800" cy="200" r="4" fill="#ff00a8"/>
    <circle cx="1200" cy="500" r="3" fill="#39ff14"/>
    <circle cx="1600" cy="300" r="2" fill="#1e90ff"/>
    <circle cx="1800" cy="700" r="4" fill="#ff00a8"/>
    <circle cx="600" cy="900" r="3" fill="#39ff14"/>
    <circle cx="1000" cy="100" r="2" fill="#1e90ff"/>
  </g>
  
  <!-- Líneas de código abstractas -->
  <g opacity="0.08" stroke="#39ff14" stroke-width="2" fill="none">
    <path d="M 100 950 L 200 950 L 220 930 L 280 930"/>
    <path d="M 100 980 L 150 980 L 170 960 L 250 960"/>
    <path d="M 100 1010 L 180 1010 L 200 990 L 300 990"/>
    
    <path d="M 1820 100 L 1720 100 L 1700 120 L 1640 120"/>
    <path d="M 1820 130 L 1770 130 L 1750 150 L 1670 150"/>
    <path d="M 1820 160 L 1740 160 L 1720 180 L 1620 180"/>
  </g>
  
  <!-- Efecto de escaneo -->
  <rect x="0" y="0" width="1920" height="1080" fill="url(#scanline)" opacity="0.03"/>
  
  <defs>
    <linearGradient id="scanline" x1="0%" y1="0%" x2="0%" y2="100%">
      <stop offset="0%" style="stop-color:#39ff14;stop-opacity:0.1" />
      <stop offset="50%" style="stop-color:#1e90ff;stop-opacity:0.05" />
      <stop offset="100%" style="stop-color:#ff00a8;stop-opacity:0.1" />
    </linearGradient>
  </defs>
</svg>
